<?xml version="1.0" encoding="iso-8859-1"?>
<!-- Generator: Adobe Illustrator 18.1.1, SVG Export Plug-In . SVG Version: 6.00 Build 0)  -->
<svg version="1.1" id="Capa_1" xmlns="http://www.w3.org/2000/svg" xmlns:xlink="http://www.w3.org/1999/xlink" x="0px" y="0px"
	 viewBox="0 0 55.499 55.499" style="enable-background:new 0 0 55.499 55.499;" xml:space="preserve">
<g>
	<path style="fill:#030104;" d="M55.499,30.012c0-4.468-3.623-8.091-8.092-8.091c-2.996,0-5.606,1.633-7.006,4.055l-17.01-11.42
		c0.31-0.859,0.49-1.783,0.49-2.752c0-4.469-3.623-8.092-8.092-8.092s-8.094,3.623-8.094,8.092c0,2.324,0.984,4.41,2.553,5.887
		c-0.689-0.189-1.408-0.299-2.156-0.299C3.623,17.392,0,21.015,0,25.484c0,4.471,3.623,8.092,8.092,8.092c2.992,0,5.6-1.625,7-4.041
		L32.069,41.05c-0.287,0.83-0.449,1.717-0.449,2.645c0,4.473,3.623,8.092,8.092,8.092c4.47,0,8.093-3.619,8.093-8.092
		c0-2.322-0.983-4.41-2.552-5.885c0.687,0.188,1.406,0.299,2.154,0.299C51.876,38.107,55.499,34.484,55.499,30.012z"/>
</g>
<g>
</g>
<g>
</g>
<g>
</g>
<g>
</g>
<g>
</g>
<g>
</g>
<g>
</g>
<g>
</g>
<g>
</g>
<g>
</g>
<g>
</g>
<g>
</g>
<g>
</g>
<g>
</g>
<g>
</g>
</svg>
