<?xml version="1.0" encoding="UTF-8" standalone="no"?>
<svg
   xmlns:dc="http://purl.org/dc/elements/1.1/"
   xmlns:cc="http://creativecommons.org/ns#"
   xmlns:rdf="http://www.w3.org/1999/02/22-rdf-syntax-ns#"
   xmlns:svg="http://www.w3.org/2000/svg"
   xmlns="http://www.w3.org/2000/svg"
   id="svg8"
   version="1.1"
   viewBox="0 0 174.03183 104.52247"
   height="104.52247mm"
   width="174.03183mm">
  <defs
     id="defs2" />
  <metadata
     id="metadata5">
    <rdf:RDF>
      <cc:Work
         rdf:about="">
        <dc:format>image/svg+xml</dc:format>
        <dc:type
           rdf:resource="http://purl.org/dc/dcmitype/StillImage" />
        <dc:title></dc:title>
      </cc:Work>
    </rdf:RDF>
  </metadata>
  <g
     transform="translate(-20.533003,-45.36093)"
     id="layer1">
    <g
       style="fill:#000000;stroke:none"
       transform="matrix(0.03527778,0,0,-0.03527778,-123.54296,249.46809)"
       id="g292">
      <path
         d="m 4279.2859,5769.7144 c -45,-20 -96,-69 -123,-119 -20,-37 -22,-57 -25,-253 -4,-251 3,-286 74,-356 67,-67 86,-71 344,-71 211,0 227,1 265,22 48,26 86,65 114,118 20,37 21,55 21,266 0,248 -4,268 -60,333 -17,18 -50,43 -75,55 -42,19 -61,21 -272,21 -181,-1 -235,-4 -263,-16 z m 516,-90 c 68,-50 69,-55 72,-290 3,-203 2,-216 -18,-252 -12,-20 -36,-47 -54,-60 -31,-21 -41,-22 -253,-22 -212,0 -221,1 -254,23 -19,12 -44,42 -57,67 -22,43 -23,53 -20,246 3,198 3,201 29,241 47,70 64,73 311,71 201,-3 219,-4 244,-24 z"
         id="path60" />
      <path
         d="m 4739.2859,5637.7144 c -21,-7 -30,-23 -30,-55 0,-48 71,-58 92,-12 18,40 -20,81 -62,67 z"
         id="path62" />
      <path
         d="m 4426.2859,5554.7144 c -65,-43 -102,-119 -94,-195 10,-98 72,-166 170,-186 72,-15 124,0 182,53 53,49 68,91 63,175 -3,52 -9,70 -34,101 -48,59 -97,83 -175,83 -57,0 -72,-4 -112,-31 z m 204,-88 c 34,-33 39,-45 39,-83 0,-154 -210,-183 -251,-36 -22,82 40,158 129,158 38,0 50,-5 83,-39 z"
         id="path64" />
      <path
         d="m 7412.8573,5410.7144 c 0,-188 1,-195 20,-195 19,0 20,7 20,104 0,97 2,106 22,120 29,20 72,20 88,0 8,-9 15,-55 18,-120 4,-93 7,-104 23,-104 17,0 19,9 19,115 0,110 -1,117 -25,140 -17,18 -35,25 -64,25 -22,0 -43,-4 -46,-10 -3,-5 -13,-10 -21,-10 -11,0 -14,15 -14,65 0,58 -2,65 -20,65 -19,0 -20,-7 -20,-195 z"
         id="path66" />
      <path
         d="m 5414.8573,5563.7144 c 2,-15 10,-23 23,-23 13,0 21,8 23,23 3,18 -1,22 -23,22 -22,0 -26,-4 -23,-22 z"
         id="path68" />
      <path
         d="m 6995.8573,5569.7144 c -3,-8 -1,-20 5,-26 16,-16 42,-2 42,22 0,24 -38,28 -47,4 z"
         id="path70" />
      <path
         d="m 5259.8573,5548.7144 c -4,-3 -7,-18 -7,-33 0,-21 -5,-26 -22,-26 -29,1 -31,-28 -2,-32 20,-3 22,-11 27,-108 3,-60 10,-111 17,-119 7,-8 28,-15 46,-15 27,0 34,4 34,19 0,13 -8,21 -22,23 -22,3 -23,8 -26,101 l -3,97 h 26 c 20,0 26,4 23,18 -2,9 -12,17 -23,17 -15,0 -21,8 -23,33 -2,23 -8,32 -21,32 -10,0 -21,-3 -24,-7 z"
         id="path72" />
      <path
         d="m 6841.8573,5538.7144 c -1,-10 -1,-23 0,-30 1,-6 -11,-13 -26,-15 -35,-4 -37,-30 -3,-38 24,-6 25,-8 28,-110 1,-57 8,-110 14,-117 6,-7 26,-13 44,-13 27,0 34,4 34,19 0,13 -8,21 -22,23 -22,3 -23,8 -26,101 l -3,97 h 26 c 33,0 31,33 -3,38 -17,3 -22,10 -22,33 0,22 -5,29 -20,29 -12,0 -20,-7 -21,-17 z"
         id="path74" />
      <path
         d="m 5419.8573,5489.7144 c -4,-4 -7,-67 -7,-141 v -133 h 25 26 l -3,137 c -3,115 -6,138 -18,141 -9,1 -19,0 -23,-4 z"
         id="path76" />
      <path
         d="m 5591.8573,5480.7144 c -78,-42 -89,-180 -18,-239 23,-20 42,-26 78,-26 53,0 84,18 106,60 18,35 19,126 1,158 -30,55 -111,78 -167,47 z m 110,-44 c 37,-37 36,-138 -2,-169 -29,-24 -64,-24 -93,1 -26,23 -29,32 -29,85 0,45 5,65 19,81 25,27 79,28 105,2 z"
         id="path78" />
      <path
         d="m 5861.8573,5466.7144 c -49,-49 -30,-102 44,-121 72,-18 87,-28 87,-55 0,-50 -78,-56 -119,-9 -12,14 -27,21 -36,18 -20,-8 -19,-16 5,-47 57,-73 200,-42 200,43 0,31 -20,51 -67,68 -83,30 -93,35 -93,51 0,26 21,41 57,41 22,0 37,-7 45,-20 18,-28 58,-27 51,0 -9,35 -51,60 -100,60 -36,0 -50,-6 -74,-29 z"
         id="path80" />
      <path
         d="m 6242.8573,5305.7144 v -190 h 25 c 24,0 25,3 25,60 0,57 1,60 19,50 26,-13 87,-13 113,1 65,35 64,224 -1,259 -27,14 -94,13 -109,-2 -9,-9 -15,-9 -24,0 -7,7 -20,12 -30,12 -17,0 -18,-14 -18,-190 z m 166,129 c 28,-31 26,-131 -3,-160 -24,-24 -75,-28 -99,-8 -21,17 -20,152 2,173 22,23 77,20 100,-5 z"
         id="path82" />
      <path
         d="m 6580.8573,5479.7144 c -24,-13 -48,-42 -48,-58 0,-15 47,-4 58,14 19,30 77,27 98,-5 26,-40 13,-55 -51,-55 -69,0 -105,-29 -105,-83 0,-63 79,-100 142,-66 14,8 23,8 31,0 6,-6 18,-11 27,-11 14,0 15,14 12,103 -4,137 -6,146 -47,163 -43,18 -82,17 -117,-2 z m 122,-163 c 0,-37 -31,-61 -77,-61 -26,0 -36,6 -45,25 -18,39 12,65 74,65 47,0 48,-1 48,-29 z"
         id="path84" />
      <path
         d="m 6996.8573,5482.7144 c -2,-7 -3,-69 -2,-138 3,-120 4,-124 26,-127 22,-3 22,-3 22,137 0,135 -1,141 -20,141 -11,0 -23,-6 -26,-13 z"
         id="path86" />
      <path
         d="m 7122.8573,5355.7144 c 0,-133 1,-140 20,-140 19,0 20,7 20,101 0,92 2,104 22,120 26,23 71,25 92,3 13,-12 16,-38 16,-120 0,-97 1,-104 20,-104 19,0 20,7 20,115 0,110 -1,117 -25,140 -29,30 -89,34 -118,8 -18,-17 -19,-17 -28,0 -6,9 -17,17 -24,17 -12,0 -15,-24 -15,-140 z"
         id="path88" />
      <path
         d="m 7740.8573,5479.7144 c -24,-13 -48,-42 -48,-58 0,-15 47,-4 58,14 9,14 23,20 51,20 34,0 40,-4 51,-31 17,-39 4,-49 -61,-49 -64,0 -99,-28 -99,-79 0,-52 29,-81 81,-81 22,0 50,5 62,11 16,9 22,9 25,0 2,-6 14,-11 26,-11 23,0 23,1 19,103 -2,56 -6,112 -9,124 -9,46 -100,68 -156,37 z m 122,-163 c 0,-37 -31,-61 -77,-61 -26,0 -36,6 -45,25 -18,39 12,65 74,65 47,0 48,-1 48,-29 z"
         id="path90" />
      <path
         d="m 8008.8573,5474.7144 c -18,-15 -26,-30 -26,-52 1,-45 17,-61 84,-83 68,-22 89,-45 65,-70 -28,-27 -84,-22 -114,10 -29,32 -52,24 -40,-13 10,-33 49,-53 101,-53 62,0 98,26 102,74 4,43 -16,62 -88,86 -61,19 -81,42 -61,66 19,23 78,21 93,-4 14,-22 58,-28 58,-7 -2,58 -118,90 -174,46 z"
         id="path92" />
      <path
         d="m 6112.8573,5259.7144 c -11,-12 -11,-18 2,-30 8,-8 22,-12 31,-8 21,8 22,40 1,48 -21,8 -20,8 -34,-10 z"
         id="path94" />
      <path
         d="m 4449.2859,4746 c -151,-42 -257,-159 -290,-320 -13,-65 -7,-127 19,-197 17,-45 17,-49 -4,-153 -12,-59 -18,-109 -14,-112 4,-2 52,6 106,20 l 99,24 59,-20 c 85,-28 207,-22 287,14 159,74 253,244 228,419 -33,230 -268,386 -490,325 z m 215,-97 c 75,-28 146,-100 175,-177 56,-147 -14,-319 -158,-389 -74,-36 -182,-39 -254,-6 -45,20 -52,21 -100,8 -29,-7 -56,-12 -59,-9 -3,2 -1,30 5,61 11,52 10,63 -8,103 -30,64 -28,187 2,251 73,149 241,216 397,158 z"
         id="path96" />
      <path
         d="m 4374.2859,4518 c -24,-28 -26,-38 -21,-77 21,-151 245,-314 355,-257 34,18 57,56 48,78 -2,8 -28,20 -56,27 -47,12 -52,11 -77,-8 -25,-20 -27,-20 -56,-3 -33,19 -118,106 -118,120 0,5 7,15 15,22 20,16 19,29 -5,84 -24,56 -47,60 -85,14 z"
         id="path98" />
      <path
         d="m 5272.2859,4522.7143 c -59,-63 -83,-129 -83,-233 0,-89 26,-165 75,-218 36,-40 69,-42 40,-3 -9,12 -28,47 -42,77 -22,45 -27,69 -28,135 0,106 9,144 49,204 40,59 33,85 -11,38 z"
         id="path100" />
      <path
         d="m 5909.2859,4541.7143 c 0,-2 16,-29 35,-61 40,-67 49,-115 43,-228 -4,-83 -19,-124 -61,-174 -33,-38 -8,-48 28,-13 58,56 80,120 79,230 -1,103 -19,158 -70,220 -21,25 -54,41 -54,26 z"
         id="path102" />
      <path
         d="m 5429.2859,4504.7143 c -46,-19 -60,-39 -60,-90 0,-38 5,-51 22,-63 l 22,-16 -27,-28 c -40,-41 -38,-101 4,-136 60,-51 170,-26 188,42 12,40 -3,88 -31,103 -20,11 -20,11 1,33 76,81 -13,197 -119,155 z m 82,-46 c 20,-18 24,-73 6,-91 -17,-17 -74,-15 -92,4 -9,8 -16,27 -16,41 0,55 62,83 102,46 z m 2,-164 c 26,-20 35,-61 18,-85 -25,-38 -91,-39 -117,-1 -21,31 -19,54 10,82 30,30 54,31 89,4 z"
         id="path104" />
      <path
         d="m 5692.2859,4495.7143 c -53,-32 -70,-80 -28,-80 14,0 25,6 25,13 0,38 80,63 108,35 16,-16 15,-83 0,-96 -7,-6 -30,-13 -50,-17 -40,-8 -54,-35 -18,-35 11,0 36,-7 55,-14 32,-14 35,-19 35,-56 0,-36 -4,-42 -33,-56 -40,-19 -82,-6 -99,31 -7,15 -18,24 -27,23 -27,-5 -24,-37 7,-68 25,-25 39,-30 77,-30 25,0 59,7 75,15 55,29 62,125 11,157 -19,12 -19,12 5,41 41,49 27,119 -31,142 -46,20 -74,19 -112,-5 z"
         id="path106" />
      <path
         d="m 6282.2859,4495.7143 c -40,-24 -53,-48 -53,-100 0,-99 72,-148 154,-105 28,15 28,15 21,-13 -12,-48 -34,-72 -80,-84 -33,-9 -45,-17 -45,-31 0,-15 5,-17 38,-11 92,17 132,74 132,192 0,87 -18,135 -59,156 -40,21 -69,20 -108,-4 z m 97,-38 c 33,-27 39,-101 11,-126 -26,-23 -76,-25 -97,-4 -9,8 -18,33 -21,54 -9,73 54,119 107,76 z"
         id="path108" />
      <path
         d="m 6702.2859,4500.7143 c -38,-16 -63,-60 -63,-110 0,-43 23,-90 49,-105 29,-15 83,-12 109,6 19,13 22,13 22,0 0,-50 -57,-106 -107,-106 -16,0 -23,-6 -23,-20 0,-19 4,-20 38,-14 96,17 133,70 135,193 1,92 -18,136 -68,157 -42,17 -51,17 -92,-1 z m 87,-43 c 27,-22 39,-94 19,-118 -36,-44 -97,-36 -119,15 -32,79 38,153 100,103 z"
         id="path110" />
      <path
         d="m 6992.2859,4500.7143 c -17,-7 -36,-22 -42,-34 -18,-32 -13,-85 10,-109 l 20,-23 -25,-30 c -58,-69 -13,-159 79,-159 25,0 59,7 74,15 56,28 65,119 15,151 l -24,16 25,30 c 43,50 24,126 -36,147 -41,14 -57,13 -96,-4 z m 84,-33 c 22,-14 32,-57 19,-83 -17,-35 -78,-39 -100,-7 -21,30 -20,54 4,78 20,20 55,26 77,12 z m 20,-174 c 19,-15 16,-83 -3,-99 -21,-17 -78,-17 -99,1 -26,22 -17,91 15,107 26,14 65,9 87,-9 z"
         id="path112" />
      <path
         d="m 7293.2859,4508.7143 c -63,-13 -92,-110 -47,-155 l 22,-22 -24,-22 c -19,-18 -25,-33 -25,-66 0,-24 4,-48 8,-54 35,-50 131,-60 181,-18 26,22 31,33 31,69 0,34 -6,49 -25,68 l -26,23 21,19 c 29,27 28,104 -2,132 -24,22 -77,34 -114,26 z m 78,-50 c 22,-20 24,-66 2,-87 -22,-23 -81,-21 -94,3 -36,68 37,134 92,84 z m 3,-168 c 14,-13 25,-33 25,-45 0,-26 -43,-70 -68,-70 -33,0 -72,38 -72,70 0,32 39,70 72,70 10,0 30,-11 43,-25 z"
         id="path114" />
      <path
         d="m 7563.2859,4499.7143 c -40,-20 -55,-53 -62,-136 -11,-148 24,-218 111,-218 86,0 117,52 116,190 -1,99 -16,140 -60,162 -42,22 -65,22 -105,2 z m 96,-44 c 17,-17 20,-33 20,-125 0,-99 -2,-107 -25,-130 -13,-14 -31,-25 -40,-25 -9,0 -27,11 -40,25 -23,22 -25,31 -25,120 0,91 9,131 34,147 20,14 56,8 76,-12 z"
         id="path116" />
      <path
         d="m 7906.2859,4501.7143 c -9,-23 2,-26 95,-26 69,0 88,-3 88,-14 0,-8 -27,-70 -59,-139 -77,-163 -79,-170 -50,-165 18,2 35,32 96,168 40,91 71,170 68,177 -7,20 -231,18 -238,-1 z"
         id="path118" />
      <path
         d="m 8263.2859,4505.7143 c -25,-10 -64,-57 -64,-76 0,-25 36,-15 58,16 41,55 112,33 112,-34 0,-40 -12,-52 -62,-61 -49,-9 -49,-31 0,-39 72,-11 95,-78 41,-118 -34,-25 -76,-15 -98,23 -19,34 -51,39 -51,8 0,-11 13,-34 29,-50 58,-58 179,-28 194,48 6,33 -16,91 -38,99 -12,5 -11,11 10,36 70,83 -25,191 -131,148 z"
         id="path120" />
      <path
         d="m 8579.2859,4486.7143 c -51,-27 -70,-59 -82,-139 -13,-84 -1,-141 39,-178 58,-53 164,-16 179,63 8,42 -9,103 -35,127 -21,19 -80,25 -118,11 -29,-9 -29,3 0,46 17,25 33,36 65,43 30,7 42,15 42,28 0,24 -44,24 -90,-1 z m 70,-161 c 23,-23 27,-95 7,-122 -41,-53 -117,-13 -117,62 0,47 27,80 65,80 14,0 34,-9 45,-20 z"
         id="path122" />
      <path
         d="m 8874.2859,4491.7143 c -62,-27 -94,-92 -95,-189 0,-105 38,-157 117,-157 85,0 133,88 94,175 -16,35 -26,45 -55,54 -23,6 -48,6 -68,0 -42,-12 -46,-5 -23,37 14,27 28,38 62,47 30,8 43,16 43,29 0,22 -31,23 -75,4 z m 64,-172 c 29,-37 27,-89 -4,-119 -13,-14 -31,-25 -39,-25 -27,0 -65,44 -72,82 -5,31 -2,41 20,62 33,34 69,33 95,0 z"
         id="path124" />
      <path
         d="m 4487.8573,3746.7143 c -67,-17 -103,-37 -146,-83 -51,-53 -79,-113 -86,-186 -10,-106 8,-160 95,-288 132,-193 193,-279 200,-279 4,0 26,28 50,63 184,264 219,319 231,357 7,23 13,77 13,120 0,66 -5,86 -30,136 -65,128 -197,192 -327,160 z m 112,-193 c 65,-31 81,-124 28,-173 -14,-13 -41,-24 -67,-27 -37,-4 -49,-1 -75,21 -59,50 -48,146 20,180 41,20 51,20 94,-1 z"
         id="path126" />
      <path
         d="m 8911.2859,3550.7143 c -7,-11 -9,-20 -4,-20 10,0 32,22 32,32 0,15 -15,8 -28,-12 z"
         id="path128" />
      <path
         d="m 6509.2859,3531.7143 c 0,-28 -3,-31 -24,-25 -34,8 -66,-26 -66,-69 0,-50 19,-70 70,-71 l 43,-1 1,94 c 1,67 -3,96 -11,98 -9,3 -13,-6 -13,-26 z m -16,-47 c 23,-9 22,-89 0,-98 -21,-8 -54,21 -54,47 0,11 7,29 17,39 18,21 16,20 37,12 z"
         id="path130" />
      <path
         d="m 5259.2859,3455.7143 c 0,-57 4,-95 10,-95 6,0 10,18 10,40 0,36 3,40 25,40 14,0 25,-3 25,-7 0,-18 41,-74 50,-68 5,3 0,21 -12,41 -19,32 -19,36 -4,53 22,24 21,68 -3,81 -11,5 -38,10 -60,10 h -41 z m 95,55 c 9,-28 -11,-50 -46,-50 -26,0 -29,3 -29,35 0,33 2,35 34,35 26,0 36,-5 41,-20 z"
         id="path132" />
      <path
         d="m 5769.2859,3455.7143 c 0,-53 4,-95 9,-95 6,0 11,17 13,38 3,35 5,37 43,40 50,4 65,17 65,53 0,41 -24,59 -81,59 h -49 z m 105,56 c 11,-34 -4,-51 -46,-51 -38,0 -39,1 -39,35 0,34 1,35 39,35 30,0 41,-5 46,-19 z"
         id="path134" />
      <path
         d="m 6159.2859,3540.7143 c 0,-5 5,-10 10,-10 6,0 10,5 10,10 0,6 -4,10 -10,10 -5,0 -10,-4 -10,-10 z"
         id="path136" />
      <path
         d="m 6781.2859,3458.7143 c 2,-54 7,-93 13,-93 6,0 11,39 13,93 2,78 0,92 -13,92 -13,0 -15,-14 -13,-92 z"
         id="path138" />
      <path
         d="m 7867.2859,3538.7143 c -34,-12 -37,-31 -5,-26 21,3 22,-1 25,-74 4,-111 22,-97 22,17 0,52 -3,95 -7,94 -5,0 -20,-5 -35,-11 z"
         id="path140" />
      <path
         d="m 7979.2859,3540.7143 c 0,-5 20,-10 45,-10 25,0 45,-2 45,-4 0,-3 -15,-39 -34,-80 -19,-42 -30,-78 -25,-81 5,-4 24,28 43,69 56,123 57,116 -13,116 -34,0 -61,-4 -61,-10 z"
         id="path142" />
      <path
         d="m 8164.2859,3495.7143 c -54,-83 -54,-85 -7,-85 33,0 41,-4 44,-20 4,-26 22,-27 27,-3 2,10 8,22 15,26 8,6 8,10 -1,14 -9,3 -13,26 -13,64 0,77 -18,78 -65,4 z m 35,-25 c 0,-36 -2,-40 -26,-40 h -25 l 22,40 c 13,22 24,40 26,40 2,0 3,-18 3,-40 z"
         id="path144" />
      <path
         d="m 8494.2859,3526.7143 c -11,-16 -15,-41 -13,-77 2,-43 8,-55 29,-72 21,-15 33,-17 55,-10 30,10 53,38 41,49 -4,4 -14,-2 -23,-14 -32,-45 -84,-13 -84,52 0,47 15,76 40,76 29,0 50,-11 50,-26 0,-8 5,-14 10,-14 18,0 11,39 -9,50 -35,18 -79,12 -96,-14 z"
         id="path146" />
      <path
         d="m 8789.2859,3540.7143 c 0,-5 7,-10 15,-10 8,0 15,5 15,10 0,6 -7,10 -15,10 -8,0 -15,-4 -15,-10 z"
         id="path148" />
      <path
         d="m 5415.2859,3503.7143 c -11,-12 -6,-99 8,-118 9,-12 26,-19 55,-19 l 41,-1 v 73 c 0,41 -4,72 -10,72 -5,0 -10,-24 -10,-54 0,-56 -17,-83 -45,-72 -11,4 -15,20 -15,60 0,51 -9,74 -24,59 z"
         id="path150" />
      <path
         d="m 5582.2859,3500.7143 c -26,-11 -31,-30 -8,-30 8,0 15,5 15,11 0,18 45,5 48,-13 3,-14 -3,-18 -25,-18 -33,0 -47,-8 -56,-33 -9,-24 28,-61 51,-51 9,3 26,6 37,6 18,-1 20,4 17,59 -3,53 -7,61 -29,70 -13,5 -25,9 -26,8 -1,0 -12,-4 -24,-9 z m 57,-85 c 0,-17 -36,-39 -50,-30 -6,3 -10,15 -10,26 0,14 7,19 30,19 20,0 30,-5 30,-15 z"
         id="path152" />
      <path
         d="m 5929.2859,3434.7143 c 0,-43 4,-74 10,-74 6,0 10,25 10,55 0,51 2,56 26,66 32,11 24,23 -17,25 l -29,2 z"
         id="path154" />
      <path
         d="m 6033.2859,3496.7143 c -10,-8 -16,-18 -12,-22 4,-4 14,-1 23,6 18,15 45,6 45,-15 0,-10 -10,-15 -28,-15 -33,0 -52,-16 -52,-45 0,-26 32,-42 78,-37 32,3 32,4 32,57 0,44 -4,57 -22,69 -28,20 -39,20 -64,2 z m 61,-89 c -9,-22 -35,-30 -52,-16 -19,16 -12,32 18,40 29,7 42,-2 34,-24 z"
         id="path156" />
      <path
         d="m 6159.2859,3435.7143 c 0,-43 4,-75 10,-75 6,0 10,32 10,75 0,43 -4,75 -10,75 -6,0 -10,-32 -10,-75 z"
         id="path158" />
      <path
         d="m 6242.2859,3500.7143 c -13,-5 -23,-14 -23,-20 0,-13 6,-13 31,1 15,7 24,7 35,-2 22,-18 17,-29 -14,-29 -39,0 -67,-31 -53,-58 13,-25 28,-30 71,-25 l 35,5 -3,56 c -4,74 -26,93 -79,72 z m 57,-85 c 0,-17 -30,-34 -47,-28 -22,8 -15,41 10,45 28,5 37,1 37,-17 z"
         id="path160" />
      <path
         d="m 6588.2859,3489.7143 c -31,-31 -23,-99 13,-117 30,-14 84,0 72,19 -4,8 -9,8 -17,0 -15,-15 -33,-14 -51,5 -26,25 -19,34 29,34 38,0 45,3 45,20 0,23 -33,60 -55,60 -8,0 -24,-9 -36,-21 z m 59,-11 c 20,-20 14,-28 -23,-28 -38,0 -46,13 -17,29 22,13 26,13 40,-1 z"
         id="path162" />
      <path
         d="m 6849.2859,3432.7143 c 0,-46 4,-71 10,-67 6,3 10,29 10,57 0,41 3,51 20,55 32,8 24,30 -10,29 l -30,-1 z"
         id="path164" />
      <path
         d="m 6948.2859,3490.7143 c -18,-14 -20,-19 -8,-20 8,0 20,5 25,10 14,14 44,2 44,-16 0,-9 -11,-14 -28,-14 -34,0 -52,-16 -52,-47 0,-29 25,-41 72,-36 l 36,5 -3,56 c -4,78 -38,103 -86,62 z m 61,-74 c 0,-26 -20,-39 -45,-30 -22,9 -18,33 8,44 33,13 37,12 37,-14 z"
         id="path166" />
      <path
         d="m 7089.2859,3490.7143 c -37,-37 -22,-110 26,-124 23,-7 75,27 62,40 -5,4 -16,0 -26,-9 -26,-23 -41,-21 -53,7 -24,52 15,104 53,70 10,-10 21,-14 26,-10 9,9 -35,46 -54,46 -8,0 -23,-9 -34,-20 z"
         id="path168" />
      <path
         d="m 7224.2859,3485.7143 c -14,-13 -25,-36 -25,-50 0,-26 39,-75 60,-75 18,0 50,20 50,30 0,6 -11,5 -25,-2 -19,-8 -28,-8 -40,2 -30,25 -18,40 31,40 45,0 46,1 40,28 -8,29 -31,52 -53,52 -8,0 -25,-11 -38,-25 z m 65,-15 c 10,-18 8,-20 -25,-20 -37,0 -43,8 -23,28 18,18 36,15 48,-8 z"
         id="path170" />
      <path
         d="m 7349.2859,3434.7143 c 0,-43 4,-74 10,-74 6,0 10,26 10,59 0,52 3,61 21,66 30,10 37,-2 41,-65 4,-70 22,-67 26,4 2,38 8,56 19,60 28,11 43,-13 43,-70 0,-30 5,-54 10,-54 6,0 10,26 10,59 0,68 -19,97 -54,86 -23,-8 -31,-8 -93,-2 l -43,4 z"
         id="path172" />
      <path
         d="m 7593.2859,3496.7143 c -25,-18 -12,-31 16,-16 16,9 25,9 36,-1 22,-18 17,-29 -13,-29 -33,0 -47,-9 -56,-33 -8,-22 28,-61 50,-53 8,3 24,6 36,6 20,0 22,4 19,57 -5,77 -39,104 -88,69 z m 63,-72 c 7,-20 -22,-45 -43,-37 -20,7 -17,41 4,46 30,8 32,7 39,-9 z"
         id="path174" />
      <path
         d="m 8649.2859,3446.7143 c 0,-72 6,-80 63,-81 l 37,-1 v 63 c 0,35 0,65 0,68 0,3 -3,5 -7,5 -5,0 -9,-24 -11,-54 -3,-55 -16,-72 -47,-60 -11,5 -15,22 -15,65 0,33 -4,59 -10,59 -6,0 -10,-28 -10,-64 z"
         id="path176" />
      <path
         d="m 8794.2859,3498.7143 c -9,-24 -1,-128 10,-131 13,-3 19,123 6,136 -7,7 -12,5 -16,-5 z"
         id="path178" />
      <path
         d="m 8873.2859,3496.7143 c -25,-18 -12,-31 14,-15 16,10 23,10 36,0 21,-18 11,-31 -23,-31 -15,0 -32,-5 -39,-12 -34,-34 9,-80 66,-71 31,5 32,6 32,59 0,43 -4,56 -22,68 -28,20 -39,20 -64,2 z m 61,-89 c -9,-22 -35,-30 -52,-16 -19,16 -12,32 18,40 29,7 42,-2 34,-24 z"
         id="path180" />
      <path
         d="m 8334.2859,3450.7143 c -4,-6 7,-10 25,-10 18,0 29,4 25,10 -3,6 -15,10 -25,10 -10,0 -22,-4 -25,-10 z"
         id="path182" />
      <path
         d="m 7716.2859,3363.7143 c -3,-16 -3,-30 -1,-33 7,-7 24,23 24,43 0,27 -17,20 -23,-10 z"
         id="path184" />
      <path
         d="m 5909.2859,3240.7143 c -6,-11 -7,-20 -2,-20 5,0 17,9 27,20 16,18 16,20 2,20 -9,0 -21,-9 -27,-20 z"
         id="path186" />
      <path
         d="m 5296.2859,3203.7143 c -9,-2 -24,-17 -32,-33 -36,-69 -3,-150 59,-150 32,0 66,25 66,48 0,19 -18,14 -30,-8 -12,-22 -52,-27 -68,-7 -19,23 -25,67 -12,97 17,40 46,48 76,19 13,-12 26,-20 29,-17 10,10 -6,35 -31,47 -26,11 -28,12 -57,4 z"
         id="path188" />
      <path
         d="m 5719.2859,3196.7143 c 0,-9 5,-16 10,-16 6,0 10,4 10,9 0,6 -4,13 -10,16 -5,3 -10,-1 -10,-9 z"
         id="path190" />
      <path
         d="m 5894.2859,3193.7143 c -48,-122 -63,-173 -51,-173 8,0 17,11 20,25 5,21 12,25 46,25 34,0 41,-4 46,-25 3,-14 12,-25 20,-25 17,0 20,-10 -20,95 -35,92 -48,109 -61,78 z m 34,-64 c 6,-18 11,-34 11,-35 0,-2 -14,-4 -31,-4 -26,0 -30,3 -24,18 4,9 10,25 12,35 8,26 20,21 32,-14 z"
         id="path192" />
      <path
         d="m 6516.2859,3203.7143 c -2,-5 -3,-46 -3,-92 1,-58 5,-86 14,-88 8,-3 12,8 12,36 0,40 1,41 34,41 19,0 38,5 41,10 4,6 -10,10 -34,10 -40,0 -41,1 -41,35 0,35 0,35 45,35 25,0 45,5 45,10 0,11 -107,14 -113,3 z"
         id="path194" />
      <path
         d="m 6744.2859,3199.7143 c -10,-15 3,-25 16,-12 7,7 7,13 1,17 -6,3 -14,1 -17,-5 z"
         id="path196" />
      <path
         d="m 7227.2859,3128.7143 c -3,-79 -4,-83 -27,-86 -15,-3 -30,3 -38,14 -16,22 -31,9 -17,-14 13,-21 70,-28 90,-11 10,8 14,35 14,95 0,109 -18,110 -22,2 z"
         id="path198" />
      <path
         d="m 7459.2859,3200.7143 c 0,-5 18,-10 40,-10 22,0 40,5 40,10 0,6 -18,10 -40,10 -22,0 -40,-4 -40,-10 z"
         id="path200" />
      <path
         d="m 7806.2859,3203.7143 c -4,-3 -7,-46 -7,-95 0,-67 3,-89 13,-85 11,4 13,9 16,50 1,12 10,17 32,17 49,0 69,16 69,55 0,24 -7,39 -22,49 -22,16 -89,22 -101,9 z m 84,-23 c 39,-21 16,-70 -32,-70 -23,0 -27,5 -31,35 -2,20 -2,38 1,40 8,8 42,5 62,-5 z"
         id="path202" />
      <path
         d="m 8729.2859,3115.7143 c 0,-57 4,-95 10,-95 6,0 10,16 10,35 0,34 1,35 38,35 42,0 72,23 72,56 0,39 -37,64 -94,64 h -36 z m 94,59 c 19,-18 19,-20 6,-45 -8,-13 -21,-19 -45,-19 -34,0 -35,1 -35,40 0,38 2,40 29,40 16,0 37,-7 45,-16 z"
         id="path204" />
      <path
         d="m 8896.2859,3203.7143 c -4,-3 -7,-46 -7,-95 v -88 h 48 c 59,0 88,24 78,65 -4,14 -11,25 -17,25 -6,0 -6,6 1,19 17,33 12,57 -15,69 -28,13 -78,16 -88,5 z m 78,-27 c 27,-19 13,-46 -25,-46 -27,0 -30,3 -30,30 0,34 22,40 55,16 z m 3,-75 c 8,-4 12,-19 10,-32 -2,-19 -10,-25 -39,-27 -35,-3 -35,-3 -31,33 3,28 8,35 26,35 11,0 27,-4 34,-9 z"
         id="path206" />
      <path
         d="m 5436.2859,3142.7143 c -23,-25 -22,-85 1,-105 43,-39 102,-6 102,55 0,56 -68,89 -103,50 z m 77,-35 c 7,-19 7,-34 0,-45 -25,-39 -74,-20 -74,27 0,55 57,69 74,18 z"
         id="path208" />
      <path
         d="m 5569.2859,3088.7143 c 0,-39 4,-68 10,-68 6,0 10,22 10,48 0,50 12,72 41,72 21,0 29,-20 29,-76 0,-24 5,-44 10,-44 15,0 12,116 -3,128 -7,6 -32,10 -55,9 l -42,-1 z"
         id="path210" />
      <path
         d="m 5719.2859,3083.7143 c 0,-59 -4,-81 -17,-96 -17,-18 -17,-19 7,-16 24,4 25,6 28,97 2,59 -1,92 -8,92 -6,0 -10,-30 -10,-77 z"
         id="path212" />
      <path
         d="m 6025.2859,3138.7143 c -35,-50 -6,-123 46,-116 22,4 28,1 26,-11 -3,-11 -15,-16 -41,-16 -45,0 -44,-19 2,-23 52,-5 61,10 61,102 v 81 l -39,3 c -31,2 -43,-2 -55,-20 z m 69,-48 c 0,-35 -4,-45 -18,-48 -26,-5 -47,16 -47,47 0,33 18,53 45,49 17,-3 20,-11 20,-48 z"
         id="path214" />
      <path
         d="m 6159.2859,3102.7143 c 0,-32 5,-63 12,-70 7,-7 31,-12 55,-12 h 43 v 71 c 0,51 -3,70 -12,67 -8,-3 -11,-21 -10,-49 3,-54 -8,-72 -39,-67 -22,3 -24,9 -27,61 -4,75 -22,74 -22,-1 z"
         id="path216" />
      <path
         d="m 6319.2859,3145.7143 c -7,-9 -9,-19 -5,-23 4,-4 10,-1 12,6 3,6 15,12 28,12 38,0 36,-24 -3,-35 -76,-22 -68,-79 12,-81 l 46,-1 v 53 c 0,58 -17,84 -54,84 -13,0 -29,-7 -36,-15 z m 70,-68 c 0,-32 -52,-51 -63,-23 -3,7 0,19 6,25 15,15 57,14 57,-2 z"
         id="path218" />
      <path
         d="m 6649.2859,3087.7143 c 0,-50 3,-68 12,-65 8,3 12,18 10,41 -4,41 12,77 33,77 8,0 15,4 15,9 0,5 -16,9 -35,8 l -35,-1 z"
         id="path220" />
      <path
         d="m 6739.2859,3089.7143 c 0,-51 3,-70 12,-67 22,8 19,138 -3,138 -5,0 -9,-32 -9,-71 z"
         id="path222" />
      <path
         d="m 6819.2859,3145.7143 c -7,-9 -9,-19 -5,-23 4,-4 10,-1 12,6 3,6 15,12 28,12 38,0 36,-24 -3,-35 -76,-22 -68,-79 12,-81 l 46,-1 v 53 c 0,58 -17,84 -54,84 -13,0 -29,-7 -36,-15 z m 65,-65 c 9,-15 -14,-40 -36,-40 -24,0 -33,18 -19,35 14,17 46,20 55,5 z"
         id="path224" />
      <path
         d="m 7306.2859,3142.7143 c -23,-25 -22,-85 1,-105 43,-39 102,-6 102,55 0,56 -68,89 -103,50 z m 75,-27 c 22,-49 -25,-98 -60,-63 -7,7 -12,24 -12,38 0,51 52,69 72,25 z"
         id="path226" />
      <path
         d="m 7454.2859,3147.7143 c -14,-11 -15,-16 -5,-22 9,-5 15,-4 18,3 5,17 52,15 52,-2 0,-7 -14,-17 -31,-22 -74,-21 -63,-78 15,-80 l 46,-1 v 52 c 0,74 -45,108 -95,72 z m 63,-79 c -3,-24 -34,-36 -49,-21 -16,16 2,43 28,43 20,0 24,-4 21,-22 z"
         id="path228" />
      <path
         d="m 7599.2859,3140.7143 c -26,-26 -26,-81 -2,-103 44,-40 102,-8 102,55 0,61 -58,90 -100,48 z m 69,-14 c 17,-20 10,-67 -11,-80 -38,-23 -72,29 -48,73 12,24 42,27 59,7 z"
         id="path230" />
      <path
         d="m 7974.2859,3140.7143 c -25,-27 -24,-89 2,-107 21,-16 75,-13 81,4 2,9 -5,11 -28,6 -22,-4 -35,-2 -41,8 -15,25 -10,29 36,29 41,0 45,2 45,23 0,51 -61,74 -95,37 z m 64,-13 c 14,-18 4,-27 -31,-27 -30,0 -31,1 -22,24 7,20 38,21 53,3 z"
         id="path232" />
      <path
         d="m 8109.2859,3145.7143 c -19,-23 -7,-49 30,-61 19,-6 36,-16 38,-23 6,-18 -27,-25 -54,-11 -30,16 -41,8 -19,-14 20,-20 68,-21 85,-1 19,23 7,49 -30,61 -19,6 -36,16 -38,23 -6,17 28,26 50,12 27,-16 38,-3 14,15 -25,18 -60,18 -76,-1 z"
         id="path234" />
      <path
         d="m 8245.2859,3144.7143 c -21,-21 -6,-49 34,-62 36,-13 41,-42 7,-42 -13,0 -28,5 -35,12 -17,17 -28,2 -12,-17 19,-23 77,-19 90,6 14,25 -9,56 -43,61 -28,4 -36,38 -10,38 11,0 24,-5 31,-12 17,-17 28,-2 12,17 -16,20 -54,19 -74,-1 z"
         id="path236" />
      <path
         d="m 8387.2859,3150.7143 c -10,-6 -20,-26 -24,-45 -17,-94 99,-121 122,-28 13,51 -53,100 -98,73 z m 68,-34 c 3,-13 4,-35 2,-47 -2,-19 -9,-24 -33,-24 -27,0 -30,4 -33,33 -5,47 3,62 32,62 19,0 27,-7 32,-24 z"
         id="path238" />
      <path
         d="m 8533.2859,3146.7143 c -24,-18 -13,-31 14,-15 20,13 52,7 52,-10 0,-5 -17,-13 -37,-18 -35,-8 -38,-12 -38,-43 0,-35 0,-35 48,-36 l 47,-2 v 57 c 0,31 -5,62 -12,69 -16,16 -50,15 -74,-2 z m 64,-78 c -4,-31 -58,-40 -58,-10 0,25 8,32 37,32 20,0 24,-5 21,-22 z"
         id="path240" />
      <path
         d="m 6999.2859,3100.7143 c 0,-5 14,-10 30,-10 17,0 30,5 30,10 0,6 -13,10 -30,10 -16,0 -30,-4 -30,-10 z"
         id="path242" />
      <path
         d="m 4235.8573,3058.7143 c -53,-14 -84,-31 -115,-58 -42,-38 -43,-39 -28,-67 35,-66 173,-103 415,-110 259,-7 447,30 498,99 18,24 19,30 7,53 -23,43 -175,105 -258,105 -60,0 -29,-23 55,-41 84,-18 150,-46 173,-74 11,-14 11,-19 -6,-34 -89,-83 -540,-108 -756,-41 -36,11 -76,29 -89,39 -20,16 -22,21 -9,36 23,28 88,56 173,74 44,9 83,23 85,29 6,18 -62,14 -145,-10 z"
         id="path244" />
    </g>
  </g>
</svg>
